<svg width="78" height="78" viewBox="0 0 78 78" fill="none" xmlns="http://www.w3.org/2000/svg">
<circle cx="39" cy="38" r="38" fill="#785E45"/>
<path d="M29.0619 50.9397L47.6561 33.7547L47.9461 46.8655C47.9601 47.4792 48.1932 48.0716 48.5942 48.5124C48.9952 48.9533 49.5311 49.2064 50.0841 49.2161C50.6372 49.2259 51.162 48.9914 51.5431 48.5644C51.9242 48.1373 52.1304 47.5526 52.1164 46.9389L51.7246 28.8899C51.7119 28.7552 51.6903 28.6213 51.66 28.4894C51.5914 28.3993 51.5502 28.3453 51.5914 28.1538C51.5051 27.8817 51.3749 27.6275 51.2073 27.4042C51.0367 27.1835 50.832 26.9981 50.6037 26.8574C50.5351 26.7673 50.4939 26.7133 50.3156 26.7247C50.2029 26.6689 50.0869 26.6222 49.9687 26.585L33.8988 23.0258C33.5965 22.9588 33.2874 22.9659 32.9934 23.0467C32.6994 23.1275 32.4277 23.28 32.1977 23.4933C31.8308 23.831 31.5874 24.3057 31.5098 24.8348C31.4662 25.1327 31.4764 25.4396 31.5399 25.738C31.6033 26.0364 31.7187 26.3205 31.8794 26.5738C32.0401 26.8271 32.2431 27.0448 32.4766 27.2144C32.7101 27.384 32.9696 27.5022 33.2403 27.5622L44.9125 30.1533L26.3183 47.3383C25.9024 47.7226 25.6482 48.2809 25.6114 48.8903C25.5747 49.4998 25.7584 50.1104 26.1222 50.588C26.4861 51.0656 27.0002 51.3709 27.5515 51.4369C28.1028 51.5028 28.6461 51.324 29.0619 50.9397Z" fill="#B6A498"/>
</svg>
