<svg width="122" height="70" viewBox="0 0 122 70" fill="none" xmlns="http://www.w3.org/2000/svg">
<path d="M49.56 55.28C49.64 55.28 49.68 55.4 49.68 55.64C49.68 55.88 49.64 56 49.56 56C48.24 56 47.18 55.98 46.38 55.94L42.06 55.88L37.86 55.94C37.14 55.98 36.12 56 34.8 56C34.72 56 34.68 55.88 34.68 55.64C34.68 55.4 34.72 55.28 34.8 55.28C36.56 55.28 37.74 55.08 38.34 54.68C38.94 54.28 39.24 53.44 39.24 52.16L39.18 51.14L37.98 25.7L25.2 55.58C25.12 55.74 24.96 55.82 24.72 55.82C24.52 55.82 24.34 55.74 24.18 55.58L9.18 25.94L8.64 48.74C8.6 50.86 9 52.48 9.84 53.6C10.72 54.72 12.02 55.28 13.74 55.28C13.86 55.28 13.92 55.4 13.92 55.64C13.92 55.88 13.86 56 13.74 56C12.66 56 11.82 55.98 11.22 55.94L7.92 55.88L4.38 55.94C3.78 55.98 2.94 56 1.86 56C1.74 56 1.68 55.88 1.68 55.64C1.68 55.4 1.74 55.28 1.86 55.28C3.5 55.28 4.76 54.72 5.64 53.6C6.56 52.48 7.04 50.86 7.08 48.74L7.62 22.94C6.9 21.66 6.1 20.72 5.22 20.12C4.38 19.52 3.4 19.22 2.28 19.22C2.16 19.22 2.1 19.1 2.1 18.86C2.1 18.62 2.16 18.5 2.28 18.5L4.86 18.56C5.38 18.6 6.06 18.62 6.9 18.62L9.72 18.56C10.04 18.52 10.44 18.5 10.92 18.5C11.44 18.5 11.86 18.7 12.18 19.1C12.5 19.46 13 20.3 13.68 21.62L26.88 47.36L38.82 20C39.06 19.44 39.32 19.06 39.6 18.86C39.88 18.62 40.22 18.5 40.62 18.5C40.9 18.5 41.26 18.52 41.7 18.56C42.14 18.6 42.68 18.62 43.32 18.62L46.56 18.56C47.08 18.52 47.86 18.5 48.9 18.5C48.98 18.5 49.02 18.62 49.02 18.86C49.02 19.1 48.98 19.22 48.9 19.22C46.98 19.22 45.58 19.58 44.7 20.3C43.86 20.98 43.48 22.12 43.56 23.72L44.94 51.14C45.02 52.38 45.16 53.28 45.36 53.84C45.6 54.4 46.02 54.78 46.62 54.98C47.22 55.18 48.2 55.28 49.56 55.28Z" fill="black"/>
<path d="M81.66 19.76C79.22 19.76 77.2 20.52 75.6 22.04C74.04 23.52 72.84 25.78 72 28.82C72 28.9 71.88 28.94 71.64 28.94C71.44 28.94 71.34 28.88 71.34 28.76C71.5 27.2 71.68 25.2 71.88 22.76C72.08 20.28 72.18 18.42 72.18 17.18C72.18 16.98 72.28 16.88 72.48 16.88C72.72 16.88 72.84 16.98 72.84 17.18C72.84 18.06 73.96 18.5 76.2 18.5C79.64 18.62 83.66 18.68 88.26 18.68C90.62 18.68 93.12 18.64 95.76 18.56L99.84 18.5C101.36 18.5 102.46 18.4 103.14 18.2C103.86 18 104.32 17.6 104.52 17C104.56 16.84 104.68 16.76 104.88 16.76C105.08 16.76 105.18 16.84 105.18 17C105.06 18.24 104.94 20.12 104.82 22.64C104.7 25.16 104.64 27.2 104.64 28.76C104.64 28.88 104.52 28.94 104.28 28.94C104.08 28.94 103.96 28.88 103.92 28.76C103.52 25.68 102.58 23.42 101.1 21.98C99.62 20.5 97.62 19.76 95.1 19.76C93.98 19.76 93.14 19.86 92.58 20.06C92.06 20.26 91.7 20.62 91.5 21.14C91.34 21.62 91.26 22.4 91.26 23.48V51.14C91.26 52.38 91.38 53.28 91.62 53.84C91.86 54.4 92.34 54.78 93.06 54.98C93.78 55.18 94.92 55.28 96.48 55.28C96.6 55.28 96.66 55.4 96.66 55.64C96.66 55.88 96.6 56 96.48 56C95.08 56 93.98 55.98 93.18 55.94L88.26 55.88L83.58 55.94C82.74 55.98 81.58 56 80.1 56C80.02 56 79.98 55.88 79.98 55.64C79.98 55.4 80.02 55.28 80.1 55.28C81.66 55.28 82.8 55.18 83.52 54.98C84.28 54.78 84.78 54.4 85.02 53.84C85.3 53.24 85.44 52.34 85.44 51.14V23.36C85.44 22.32 85.34 21.56 85.14 21.08C84.94 20.6 84.58 20.26 84.06 20.06C83.54 19.86 82.74 19.76 81.66 19.76Z" fill="black"/>
<line x1="62" y1="3" x2="62" y2="69.2162" stroke="black" stroke-width="2"/>
</svg>
