<svg width="45" height="45" viewBox="0 0 45 45" fill="none" xmlns="http://www.w3.org/2000/svg">
<path d="M22.5 0C34.9266 0 45 10.0734 45 22.5C45 34.9266 34.9266 45 22.5 45C10.0734 45 0 34.9266 0 22.5C0 10.0734 10.0734 0 22.5 0ZM30.2616 31.6716C30.675 30.4022 32.6147 17.7469 32.8537 15.2531C32.9259 14.4975 32.6878 13.9959 32.22 13.7719C31.6547 13.5 30.8175 13.6359 29.8453 13.9866C28.5131 14.4666 11.4797 21.6994 10.4953 22.1175C9.5625 22.5141 8.67937 22.9463 8.67937 23.5725C8.67937 24.0131 8.94094 24.2606 9.66094 24.5175C10.41 24.7847 12.2972 25.3566 13.4119 25.6641C14.4853 25.9603 15.7069 25.7034 16.3912 25.2778C17.1169 24.8269 25.4944 19.2216 26.0953 18.7303C26.6962 18.2391 27.1753 18.8681 26.6841 19.3603C26.1928 19.8516 20.4431 25.4325 19.6847 26.205C18.7641 27.1434 19.4175 28.1156 20.0353 28.5047C20.7403 28.9491 25.8131 32.3513 26.5772 32.8969C27.3412 33.4425 28.1156 33.69 28.8253 33.69C29.535 33.69 29.9081 32.7563 30.2616 31.6716Z" fill="#B6A498"/>
</svg>
