<svg width="43" height="45" viewBox="0 0 43 45" fill="none" xmlns="http://www.w3.org/2000/svg">
<path d="M21.5 0C33.3743 0 43 10.0734 43 22.5C43 34.9266 33.3743 45 21.5 45C9.62573 45 0 34.9266 0 22.5C0 10.0734 9.62573 0 21.5 0ZM28.9166 31.6716C29.3117 30.4022 31.1651 17.7469 31.3936 15.2531C31.4626 14.4975 31.235 13.9959 30.788 13.7719C30.2478 13.5 29.4478 13.6359 28.5189 13.9866C27.2459 14.4666 10.9695 21.6994 10.0289 22.1175C9.1375 22.5141 8.29362 22.9463 8.29362 23.5725C8.29362 24.0131 8.54356 24.2606 9.23156 24.5175C9.94733 24.7847 11.7506 25.3566 12.8158 25.6641C13.8415 25.9603 15.0088 25.7034 15.6627 25.2778C16.3561 24.8269 24.3613 19.2216 24.9355 18.7303C25.5097 18.2391 25.9675 18.8681 25.4981 19.3603C25.0287 19.8516 19.5345 25.4325 18.8098 26.205C17.9301 27.1434 18.5545 28.1156 19.1449 28.5047C19.8185 28.9491 24.6659 32.3512 25.396 32.8969C26.1261 33.4425 26.866 33.69 27.5442 33.69C28.2223 33.69 28.5789 32.7563 28.9166 31.6716Z" fill="white"/>
</svg>
