<svg width="45" height="45" viewBox="0 0 45 45" fill="none" xmlns="http://www.w3.org/2000/svg">
<path d="M27.99 0H18C8.235 0 0 7.07727 0 15.4432V22.5818C0 29.5159 2.295 34.0159 7.02 36.3273V41.0318C7.02 42.6273 8.0775 44.0591 9.675 44.6727C10.2375 44.8977 10.8 45 11.385 45C12.4875 45 13.59 44.6114 14.4225 43.875L21.0825 38.025H27.99C37.3725 38.025 45 31.0909 45 22.5818V15.4432C45 6.91364 37.3725 0 27.99 0ZM33.345 28.0432C33.0075 28.4523 32.6025 28.9023 32.1975 29.3523C31.0275 30.5795 29.115 31.0295 27.45 30.3955C23.6475 28.9841 19.1025 26.1205 16.2225 23.7068C13.8825 21.7227 11.0925 17.1 9.4275 14.1136C8.55 12.5182 9.045 10.5955 10.62 9.49091L11.925 8.57045C12.87 7.91591 14.22 8.1 14.895 8.97954L17.46 12.2727C18.0675 13.0705 17.91 14.1545 17.0775 14.7682L16.38 15.3C15.7725 15.7705 15.5025 16.5068 15.6825 17.2023C16.02 18.3477 16.92 20.025 18.54 21.6C20.4975 23.5023 22.2075 24.1364 23.265 24.3409C23.9625 24.4636 24.66 24.2182 25.1325 23.7477L25.83 23.0318C26.5275 22.2341 27.7875 22.0705 28.6875 22.6636L32.895 25.425C33.84 26.0386 34.02 27.2045 33.345 28.0432ZM23.625 15.3409C23.625 14.7682 24.12 14.3182 24.75 14.3182C27.45 14.3182 29.25 15.9545 29.25 18.4091C29.25 18.9818 28.755 19.4318 28.125 19.4318C27.495 19.4318 27 18.9818 27 18.4091C27 17.1 26.2125 16.3636 24.75 16.3636C24.12 16.3636 23.625 15.9136 23.625 15.3409ZM32.625 19.4318C31.995 19.4318 31.5 18.9818 31.5 18.4091C31.5 15.3205 28.1475 12.2727 24.75 12.2727C24.12 12.2727 23.625 11.8227 23.625 11.25C23.625 10.6773 24.12 10.2273 24.75 10.2273C29.385 10.2273 33.75 14.1955 33.75 18.4091C33.75 18.9818 33.255 19.4318 32.625 19.4318ZM37.125 19.4318C36.495 19.4318 36 18.9818 36 18.4091C36 13.5614 31.3875 8.18182 24.75 8.18182C24.12 8.18182 23.625 7.73182 23.625 7.15909C23.625 6.58636 24.12 6.13636 24.75 6.13636C32.715 6.13636 38.25 12.6 38.25 18.4091C38.25 18.9818 37.755 19.4318 37.125 19.4318Z" fill="#B6A498"/>
</svg>
