<svg width="44" height="46" viewBox="0 0 44 46" fill="none" xmlns="http://www.w3.org/2000/svg">
<path d="M27.368 0H17.6C8.052 0 0 7.23454 0 15.7864V23.0836C0 30.1718 2.244 34.7718 6.864 37.1345V41.9436C6.864 43.5745 7.898 45.0382 9.46 45.6655C10.01 45.8955 10.56 46 11.132 46C12.21 46 13.288 45.6027 14.102 44.85L20.614 38.87H27.368C36.542 38.87 44 31.7818 44 23.0836V15.7864C44 7.06727 36.542 0 27.368 0ZM32.604 28.6664C32.274 29.0845 31.878 29.5445 31.482 30.0045C30.338 31.2591 28.468 31.7191 26.84 31.0709C23.122 29.6282 18.678 26.7009 15.862 24.2336C13.574 22.2055 10.846 17.48 9.218 14.4273C8.36 12.7964 8.844 10.8309 10.384 9.70182L11.66 8.76091C12.584 8.09182 13.904 8.28 14.564 9.17909L17.072 12.5455C17.666 13.3609 17.512 14.4691 16.698 15.0964L16.016 15.64C15.422 16.1209 15.158 16.8736 15.334 17.5845C15.664 18.7555 16.544 20.47 18.128 22.08C20.042 24.0245 21.714 24.6727 22.748 24.8818C23.43 25.0073 24.112 24.7564 24.574 24.2755L25.256 23.5436C25.938 22.7282 27.17 22.5609 28.05 23.1673L32.164 25.99C33.088 26.6173 33.264 27.8091 32.604 28.6664ZM23.1 15.6818C23.1 15.0964 23.584 14.6364 24.2 14.6364C26.84 14.6364 28.6 16.3091 28.6 18.8182C28.6 19.4036 28.116 19.8636 27.5 19.8636C26.884 19.8636 26.4 19.4036 26.4 18.8182C26.4 17.48 25.63 16.7273 24.2 16.7273C23.584 16.7273 23.1 16.2673 23.1 15.6818ZM31.9 19.8636C31.284 19.8636 30.8 19.4036 30.8 18.8182C30.8 15.6609 27.522 12.5455 24.2 12.5455C23.584 12.5455 23.1 12.0855 23.1 11.5C23.1 10.9145 23.584 10.4545 24.2 10.4545C28.732 10.4545 33 14.5109 33 18.8182C33 19.4036 32.516 19.8636 31.9 19.8636ZM36.3 19.8636C35.684 19.8636 35.2 19.4036 35.2 18.8182C35.2 13.8627 30.69 8.36364 24.2 8.36364C23.584 8.36364 23.1 7.90364 23.1 7.31818C23.1 6.73273 23.584 6.27273 24.2 6.27273C31.988 6.27273 37.4 12.88 37.4 18.8182C37.4 19.4036 36.916 19.8636 36.3 19.8636Z" fill="white"/>
</svg>
