<svg width="45" height="45" viewBox="0 0 45 45" fill="none" xmlns="http://www.w3.org/2000/svg">
<path d="M22.5 0C10.0733 0 0 10.0733 0 22.5C0 34.9267 10.0733 45 22.5 45C34.9267 45 45 34.9267 45 22.5C45 10.0733 34.9267 0 22.5 0ZM34.9087 31.5H31.9635C30.8475 31.5 30.4942 30.3952 28.548 28.125C26.8605 26.1562 25.9875 25.875 25.5578 25.875C24.9548 25.875 24.75 26.0235 24.75 26.9258V30.2693C24.75 31.0185 24.5565 31.5 22.6687 31.5C19.5525 31.5 16.0313 29.3895 13.3605 25.7333C9.675 20.691 9 16.3058 9 15.4958C9 15.0458 9.14175 14.625 10.0013 14.625H12.9735C13.7182 14.625 14.004 14.9558 14.2897 15.8265C15.6105 20.25 17.5793 23.625 18.5805 23.625C18.9518 23.625 19.125 23.445 19.125 22.455V18.378C19.0103 16.2765 18 16.0965 18 15.345C18 14.9827 18.2385 14.625 18.6975 14.625H23.9265C24.5565 14.625 24.75 14.985 24.75 15.7657V21.6C24.75 22.2593 25.254 22.5 25.452 22.5C25.8233 22.5 26.172 22.518 26.8583 21.7958C28.9733 19.3028 30.8092 15.525 30.8092 15.525C31.0117 15.075 31.3538 14.625 32.0985 14.625H35.0438C35.703 14.625 35.982 14.9197 36 15.3292C36.0068 15.471 35.982 15.6285 35.9302 15.7972C35.559 17.5972 31.752 22.9432 31.7812 22.9432C31.6193 23.22 31.5112 23.418 31.5 23.6273C31.4888 23.8253 31.5698 24.0322 31.7812 24.3247C32.094 24.7747 32.778 25.6028 33.4688 26.4398C34.7175 27.9495 35.7188 29.5335 35.937 30.1815C35.9843 30.357 36.0045 30.5168 36 30.6585C35.9842 31.212 35.5905 31.5 34.9087 31.5Z" fill="#B6A498"/>
</svg>
