<svg width="45" height="46" viewBox="0 0 45 46" fill="none" xmlns="http://www.w3.org/2000/svg">
<path d="M22.5 0C10.0733 0 0 10.2971 0 23C0 35.7029 10.0733 46 22.5 46C34.9267 46 45 35.7029 45 23C45 10.2971 34.9267 0 22.5 0ZM34.9087 32.2H31.9635C30.8475 32.2 30.4942 31.0707 28.548 28.75C26.8605 26.7375 25.9875 26.45 25.5578 26.45C24.9548 26.45 24.75 26.6018 24.75 27.5241V30.9419C24.75 31.7078 24.5565 32.2 22.6687 32.2C19.5525 32.2 16.0313 30.0426 13.3605 26.3051C9.675 21.1508 9 16.6681 9 15.8401C9 15.3801 9.14175 14.95 10.0013 14.95H12.9735C13.7182 14.95 14.004 15.2881 14.2897 16.1782C15.6105 20.7 17.5793 24.15 18.5805 24.15C18.9518 24.15 19.125 23.966 19.125 22.954V18.7864C19.0103 16.6382 18 16.4542 18 15.686C18 15.3157 18.2385 14.95 18.6975 14.95H23.9265C24.5565 14.95 24.75 15.318 24.75 16.1161V22.08C24.75 22.7539 25.254 23 25.452 23C25.8233 23 26.172 23.0184 26.8583 22.2801C28.9733 19.7317 30.8092 15.87 30.8092 15.87C31.0117 15.41 31.3538 14.95 32.0985 14.95H35.0438C35.703 14.95 35.982 15.2513 36 15.6699C36.0068 15.8148 35.982 15.9758 35.9302 16.1483C35.559 17.9883 31.752 23.4531 31.7812 23.4531C31.6193 23.736 31.5112 23.9384 31.5 24.1523C31.4888 24.3547 31.5698 24.5663 31.7812 24.8653C32.094 25.3253 32.778 26.1717 33.4688 27.0273C34.7175 28.5706 35.7188 30.1898 35.937 30.8522C35.9843 31.0316 36.0045 31.1949 36 31.3398C35.9842 31.9056 35.5905 32.2 34.9087 32.2Z" fill="white"/>
</svg>
