<svg width="45" height="46" viewBox="0 0 45 46" fill="none" xmlns="http://www.w3.org/2000/svg">
<path d="M38.4252 6.7344C34.1814 2.3943 28.5382 0.0023 22.5259 0C10.1368 0 0.0540029 10.3017 0.0495026 22.9655C0.0472525 27.0135 1.0823 30.9649 3.0489 34.4471L0 46L11.7748 43.1549C15.0577 44.9857 18.7524 45.9494 22.5146 45.9517H22.5236C34.9105 45.9517 44.9932 35.6477 45 22.9862C45.0045 16.8475 42.6689 11.0768 38.4252 6.7344ZM33.5222 31.1742C33.0541 32.5151 30.7613 33.8077 29.7307 33.902C28.7002 33.9986 27.7349 34.3781 22.9916 32.4668C17.2831 30.1668 13.6784 24.1845 13.3994 23.8027C13.1182 23.4186 11.1066 20.6908 11.1066 17.8664C11.1066 15.042 12.5579 13.6528 13.0732 13.0801C13.5884 12.5051 14.196 12.3625 14.5717 12.3625C14.9452 12.3625 15.321 12.3625 15.6473 12.3763C16.0478 12.3924 16.4911 12.4131 16.9118 13.3676C17.4114 14.5038 18.5027 17.342 18.6422 17.6295C18.7817 17.917 18.8762 18.2528 18.6894 18.6346C18.5027 19.0164 18.4082 19.2556 18.1292 19.5914C17.8479 19.9272 17.5396 20.3389 17.2876 20.5965C17.0063 20.8817 16.7138 21.1945 17.0401 21.7672C17.3686 22.3422 18.4937 24.2213 20.1633 25.7416C22.3099 27.6966 24.1167 28.3015 24.6792 28.5913C25.2418 28.8788 25.568 28.8305 25.8965 28.4464C26.2251 28.0646 27.3006 26.772 27.6741 26.197C28.0476 25.622 28.4234 25.7186 28.9387 25.9095C29.454 26.1004 32.2149 27.4896 32.7751 27.7771C33.3377 28.0646 33.7112 28.2072 33.8507 28.4464C33.9902 28.6833 33.9902 29.8333 33.5222 31.1742Z" fill="white"/>
</svg>
