<svg width="45" height="45" viewBox="0 0 45 45" fill="none" xmlns="http://www.w3.org/2000/svg">
<path d="M38.4252 6.588C34.1815 2.34225 28.5382 0.00225 22.5259 0C10.1368 0 0.0540029 10.0777 0.0495026 22.4662C0.0472525 26.4262 1.0823 30.2917 3.0489 33.6982L0 45L11.7748 42.2168C15.0577 44.0078 18.7524 44.9505 22.5146 44.9528H22.5236C34.9105 44.9528 44.9932 34.8728 45 22.4865C45.0045 16.4813 42.6689 10.836 38.4252 6.588ZM33.5222 30.4965C33.0541 31.8082 30.7613 33.0727 29.7307 33.165C28.7002 33.2595 27.7349 33.6307 22.9916 31.761C17.2831 29.511 13.6784 23.6587 13.3994 23.2852C13.1182 22.9095 11.1066 20.241 11.1066 17.478C11.1066 14.715 12.5579 13.356 13.0732 12.7957C13.5884 12.2332 14.196 12.0938 14.5717 12.0938C14.9452 12.0938 15.321 12.0938 15.6473 12.1073C16.0478 12.123 16.4911 12.1432 16.9118 13.077C17.4114 14.1885 18.5027 16.965 18.6422 17.2462C18.7817 17.5275 18.8762 17.856 18.6894 18.2295C18.5027 18.603 18.4082 18.837 18.1292 19.1655C17.8479 19.494 17.5396 19.8967 17.2876 20.1487C17.0063 20.4277 16.7138 20.7337 17.0401 21.294C17.3686 21.8565 18.4937 23.6948 20.1633 25.182C22.3099 27.0945 24.1167 27.6862 24.6792 27.9697C25.2418 28.251 25.568 28.2038 25.8965 27.828C26.2251 27.4545 27.3006 26.19 27.6741 25.6275C28.0476 25.065 28.4234 25.1595 28.9387 25.3463C29.454 25.533 32.2149 26.892 32.7751 27.1732C33.3377 27.4545 33.7112 27.594 33.8507 27.828C33.9902 28.0598 33.9902 29.1847 33.5222 30.4965Z" fill="#B6A498"/>
</svg>
